<svg width="296" height="28" viewBox="0 0 296 28" fill="none" xmlns="http://www.w3.org/2000/svg">
<path fill-rule="evenodd" clip-rule="evenodd" d="M6.5752 8.48438C6.5752 8.25195 6.53874 8.04688 6.46582 7.86914C6.39746 7.68685 6.27441 7.52279 6.09668 7.37695C5.9235 7.23112 5.68197 7.09212 5.37207 6.95996C5.06673 6.8278 4.67936 6.69336 4.20996 6.55664C3.71777 6.41081 3.27344 6.24902 2.87695 6.07129C2.48047 5.889 2.14095 5.68164 1.8584 5.44922C1.57585 5.2168 1.35938 4.9502 1.20898 4.64941C1.05859 4.34863 0.983398 4.00456 0.983398 3.61719C0.983398 3.22982 1.06315 2.87207 1.22266 2.54395C1.38216 2.21582 1.61003 1.93099 1.90625 1.68945C2.20703 1.44336 2.56478 1.25195 2.97949 1.11523C3.39421 0.978516 3.85677 0.910156 4.36719 0.910156C5.11458 0.910156 5.74805 1.05371 6.26758 1.34082C6.79167 1.62337 7.19043 1.99479 7.46387 2.45508C7.7373 2.91081 7.87402 3.39844 7.87402 3.91797H6.56152C6.56152 3.54427 6.48177 3.21387 6.32227 2.92676C6.16276 2.63509 5.92122 2.40723 5.59766 2.24316C5.27409 2.07454 4.86393 1.99023 4.36719 1.99023C3.89779 1.99023 3.51042 2.06087 3.20508 2.20215C2.89974 2.34342 2.67188 2.53483 2.52148 2.77637C2.37565 3.0179 2.30273 3.29362 2.30273 3.60352C2.30273 3.81315 2.34603 4.00456 2.43262 4.17773C2.52376 4.34635 2.66276 4.50358 2.84961 4.64941C3.04102 4.79525 3.28255 4.92969 3.57422 5.05273C3.87044 5.17578 4.22363 5.29427 4.63379 5.4082C5.19889 5.56771 5.68652 5.74544 6.09668 5.94141C6.50684 6.13737 6.84408 6.3584 7.1084 6.60449C7.37728 6.84603 7.57552 7.12174 7.70312 7.43164C7.83529 7.73698 7.90137 8.08333 7.90137 8.4707C7.90137 8.8763 7.81934 9.24316 7.65527 9.57129C7.49121 9.89941 7.25651 10.1797 6.95117 10.4121C6.64583 10.6445 6.27897 10.8245 5.85059 10.9521C5.42676 11.0752 4.9528 11.1367 4.42871 11.1367C3.96842 11.1367 3.51497 11.0729 3.06836 10.9453C2.6263 10.8177 2.22298 10.6263 1.8584 10.3711C1.49837 10.1159 1.20898 9.80143 0.990234 9.42773C0.776042 9.04948 0.668945 8.61198 0.668945 8.11523H1.98145C1.98145 8.45703 2.04753 8.75098 2.17969 8.99707C2.31185 9.23861 2.49186 9.43913 2.71973 9.59863C2.95215 9.75814 3.21419 9.87663 3.50586 9.9541C3.80208 10.027 4.1097 10.0635 4.42871 10.0635C4.889 10.0635 5.27865 9.99967 5.59766 9.87207C5.91667 9.74447 6.1582 9.56217 6.32227 9.3252C6.49089 9.08822 6.5752 8.80794 6.5752 8.48438ZM12.3037 11H12.4541H13.3223H13.4727L17.1572 1.04688H15.7285L12.8783 9.252L10.0547 1.04688H8.62598L12.3037 11ZM26.0645 5.70898V6.33789C26.0645 7.08529 25.971 7.75521 25.7842 8.34766C25.5973 8.9401 25.3285 9.44368 24.9775 9.8584C24.6266 10.2731 24.2051 10.5898 23.7129 10.8086C23.2253 11.0273 22.6784 11.1367 22.0723 11.1367C21.4844 11.1367 20.9443 11.0273 20.4521 10.8086C19.9645 10.5898 19.5407 10.2731 19.1807 9.8584C18.8252 9.44368 18.5495 8.9401 18.3535 8.34766C18.1576 7.75521 18.0596 7.08529 18.0596 6.33789V5.70898C18.0596 4.96159 18.1553 4.29395 18.3467 3.70605C18.5426 3.11361 18.8184 2.61003 19.1738 2.19531C19.5293 1.77604 19.9508 1.45703 20.4385 1.23828C20.9307 1.01953 21.4707 0.910156 22.0586 0.910156C22.6647 0.910156 23.2116 1.01953 23.6992 1.23828C24.1914 1.45703 24.613 1.77604 24.9639 2.19531C25.3193 2.61003 25.5905 3.11361 25.7773 3.70605C25.9688 4.29395 26.0645 4.96159 26.0645 5.70898ZM24.7588 6.33789V5.69531C24.7588 5.10286 24.6973 4.57878 24.5742 4.12305C24.4557 3.66732 24.2803 3.28451 24.0479 2.97461C23.8154 2.66471 23.5306 2.43001 23.1934 2.27051C22.8607 2.111 22.4824 2.03125 22.0586 2.03125C21.6484 2.03125 21.277 2.111 20.9443 2.27051C20.6162 2.43001 20.3337 2.66471 20.0967 2.97461C19.8643 3.28451 19.6842 3.66732 19.5566 4.12305C19.429 4.57878 19.3652 5.10286 19.3652 5.69531V6.33789C19.3652 6.9349 19.429 7.46354 19.5566 7.92383C19.6842 8.37956 19.8665 8.76465 20.1035 9.0791C20.3451 9.389 20.6299 9.6237 20.958 9.7832C21.2907 9.94271 21.6621 10.0225 22.0723 10.0225C22.5007 10.0225 22.8812 9.94271 23.2139 9.7832C23.5465 9.6237 23.8268 9.389 24.0547 9.0791C24.2871 8.76465 24.4626 8.37956 24.5811 7.92383C24.6995 7.46354 24.7588 6.9349 24.7588 6.33789ZM17.4691 23.5C17.223 21.5268 15.5398 20 13.5 20C11.2909 20 9.5 21.7909 9.5 24C9.5 26.2091 11.2909 28 13.5 28C15.5398 28 17.223 26.4732 17.4691 24.5L279.031 24.5C279.277 26.4732 280.96 28 283 28C285.209 28 287 26.2091 287 24C287 21.7909 285.209 20 283 20C280.96 20 279.277 21.5269 279.031 23.5L17.4691 23.5ZM270.155 1.04688H273.45C274.198 1.04688 274.829 1.16081 275.344 1.38867C275.863 1.61654 276.257 1.95378 276.526 2.40039C276.8 2.84245 276.937 3.38704 276.937 4.03418C276.937 4.48991 276.843 4.9069 276.656 5.28516C276.474 5.65885 276.21 5.97786 275.863 6.24219C275.623 6.42445 275.35 6.57418 275.043 6.69137L277.381 10.918V11H275.973L273.809 6.9668H271.475V11H270.155V1.04688ZM273.491 5.89355H271.475V2.12695H273.45C273.956 2.12695 274.368 2.20671 274.688 2.36621C275.011 2.52116 275.248 2.74219 275.398 3.0293C275.549 3.31641 275.624 3.65137 275.624 4.03418C275.624 4.37598 275.544 4.68815 275.385 4.9707C275.225 5.25326 274.988 5.47884 274.674 5.64746C274.359 5.81152 273.965 5.89355 273.491 5.89355ZM286.445 5.70898V6.33789C286.445 7.08529 286.352 7.75521 286.165 8.34766C285.978 8.9401 285.709 9.44368 285.358 9.8584C285.007 10.2731 284.586 10.5898 284.094 10.8086C283.606 11.0273 283.059 11.1367 282.453 11.1367C281.865 11.1367 281.325 11.0273 280.833 10.8086C280.345 10.5898 279.922 10.2731 279.562 9.8584C279.206 9.44368 278.93 8.9401 278.734 8.34766C278.538 7.75521 278.44 7.08529 278.44 6.33789V5.70898C278.44 4.96159 278.536 4.29395 278.728 3.70605C278.923 3.11361 279.199 2.61003 279.555 2.19531C279.91 1.77604 280.332 1.45703 280.819 1.23828C281.312 1.01953 281.852 0.910156 282.439 0.910156C283.046 0.910156 283.592 1.01953 284.08 1.23828C284.572 1.45703 284.994 1.77604 285.345 2.19531C285.7 2.61003 285.971 3.11361 286.158 3.70605C286.35 4.29395 286.445 4.96159 286.445 5.70898ZM285.14 6.33789V5.69531C285.14 5.10286 285.078 4.57878 284.955 4.12305C284.837 3.66732 284.661 3.28451 284.429 2.97461C284.196 2.66471 283.911 2.43001 283.574 2.27051C283.242 2.111 282.863 2.03125 282.439 2.03125C282.029 2.03125 281.658 2.111 281.325 2.27051C280.997 2.43001 280.715 2.66471 280.478 2.97461C280.245 3.28451 280.065 3.66732 279.938 4.12305C279.81 4.57878 279.746 5.10286 279.746 5.69531V6.33789C279.746 6.9349 279.81 7.46354 279.938 7.92383C280.065 8.37956 280.247 8.76465 280.484 9.0791C280.726 9.389 281.011 9.6237 281.339 9.7832C281.672 9.94271 282.043 10.0225 282.453 10.0225C282.882 10.0225 283.262 9.94271 283.595 9.7832C283.927 9.6237 284.208 9.389 284.436 9.0791C284.668 8.76465 284.843 8.37956 284.962 7.92383C285.08 7.46354 285.14 6.9349 285.14 6.33789ZM290.991 11H291.142H292.01H292.16L295.845 1.04688H294.416L291.566 9.252L288.742 1.04688H287.313L290.991 11Z" fill="#C4C4C4"/>
</svg>

